<?xml version="1.0" encoding="UTF-8" standalone="no"?>
<!DOCTYPE svg PUBLIC "-//W3C//DTD SVG 1.1//EN" "http://www.w3.org/Graphics/SVG/1.1/DTD/svg11.dtd">
<svg width="100%" height="100%" viewBox="0 0 1000 1000" version="1.1" xmlns="http://www.w3.org/2000/svg" xmlns:xlink="http://www.w3.org/1999/xlink" xml:space="preserve" xmlns:serif="http://www.serif.com/" style="fill-rule:evenodd;clip-rule:evenodd;stroke-linejoin:round;stroke-miterlimit:2;">
    <g id="layer" transform="matrix(2.51381,0,0,2.51381,99.9896,99.9895)">
        <g id="Layer_2">
            <g id="layer1" serif:id="layer">
                <path d="M46.17,158.77C46.177,135.65 28.722,115.949 5.77,113.17C-1.919,143.082 -1.919,174.458 5.77,204.37C28.739,201.625 46.212,181.902 46.17,158.77Z" style="fill:rgb(46,204,113);fill-rule:nonzero;"/>
                <path d="M72.87,144.37C72.853,144.37 72.837,144.37 72.82,144.37C64.893,144.37 58.37,150.893 58.37,158.82C58.37,166.747 64.893,173.27 72.82,173.27C80.728,173.27 87.243,166.778 87.27,158.87L87.27,158.77C87.27,158.75 87.27,158.73 87.27,158.71C87.27,150.843 80.797,144.37 72.93,144.37C72.91,144.37 72.89,144.37 72.87,144.37Z" style="fill:rgb(46,204,113);fill-rule:nonzero;"/>
                <path d="M272.07,158.77C272.063,181.89 289.518,201.591 312.47,204.37C320.169,174.459 320.169,143.081 312.47,113.17C289.535,115.983 272.099,135.663 272.07,158.77Z" style="fill:rgb(46,204,113);fill-rule:nonzero;"/>
                <path d="M245.27,144.37C245.217,144.369 245.164,144.369 245.111,144.369C237.178,144.369 230.651,150.897 230.651,158.829C230.651,166.762 237.178,173.289 245.111,173.289C252.979,173.289 259.477,166.867 259.57,159L259.57,158.8C259.554,150.939 253.131,144.457 245.27,144.37Z" style="fill:rgb(46,204,113);fill-rule:nonzero;"/>
                <path d="M158.77,272.08C135.65,272.073 115.949,289.528 113.17,312.48C143.084,320.178 174.466,320.178 204.38,312.48C201.596,289.526 181.892,272.073 158.77,272.08Z" style="fill:rgb(46,204,113);fill-rule:nonzero;"/>
                <path d="M158.77,231C158.753,231 158.737,231 158.72,231C150.793,231 144.27,237.523 144.27,245.45C144.27,253.377 150.793,259.9 158.72,259.9C166.628,259.9 173.143,253.408 173.17,245.5L173.17,245.39C173.165,237.494 166.666,231 158.77,231Z" style="fill:rgb(46,204,113);fill-rule:nonzero;"/>
                <path d="M158.77,46.17C181.892,46.177 201.596,28.724 204.38,5.77C174.465,-1.919 143.085,-1.919 113.17,5.77C115.949,28.722 135.65,46.177 158.77,46.17Z" style="fill:rgb(46,204,113);fill-rule:nonzero;"/>
                <path d="M158.77,58.48C150.87,58.48 144.37,64.98 144.37,72.88C144.37,80.78 150.87,87.28 158.77,87.28C166.67,87.28 173.17,80.78 173.17,72.88C173.17,72.877 173.17,72.873 173.17,72.87C173.165,64.974 166.666,58.48 158.77,58.48Z" style="fill:rgb(46,204,113);fill-rule:nonzero;"/>
                <path d="M238.77,238.77C222.447,255.084 220.849,281.304 235.07,299.48C261.671,283.774 283.864,261.581 299.57,234.98C281.29,220.929 255.163,222.558 238.77,238.77Z" style="fill:rgb(46,204,113);fill-rule:nonzero;"/>
                <path d="M209.67,209.67C206.969,212.373 205.45,216.042 205.45,219.863C205.45,227.774 211.959,234.283 219.87,234.283C227.781,234.283 234.29,227.774 234.29,219.863C234.29,216.042 232.771,212.373 230.07,209.67C224.457,204.114 215.283,204.114 209.67,209.67Z" style="fill:rgb(46,204,113);fill-rule:nonzero;"/>
                <path d="M79.07,79.07C95.363,62.757 97.001,36.588 82.87,18.37C56.267,34.074 34.074,56.267 18.37,82.87C36.588,97.001 62.757,95.363 79.07,79.07Z" style="fill:rgb(46,204,113);fill-rule:nonzero;"/>
                <path d="M87.77,87.77C85.069,90.473 83.55,94.142 83.55,97.963C83.55,105.874 90.059,112.383 97.97,112.383C105.881,112.383 112.39,105.874 112.39,97.963C112.39,94.142 110.871,90.473 108.17,87.77C102.559,82.209 93.381,82.209 87.77,87.77Z" style="fill:rgb(46,204,113);fill-rule:nonzero;"/>
                <path d="M238.67,78.87C254.984,95.168 281.161,96.807 299.38,82.67C283.67,56.072 261.478,33.88 234.88,18.17C220.746,36.385 222.38,62.554 238.67,78.87Z" style="fill:rgb(46,204,113);fill-rule:nonzero;"/>
                <path d="M230,108.07C232.701,105.367 234.22,101.698 234.22,97.877C234.22,89.966 227.711,83.457 219.8,83.457C211.889,83.457 205.38,89.966 205.38,97.877C205.38,101.698 206.899,105.367 209.6,108.07C215.211,113.631 224.389,113.631 230,108.07Z" style="fill:rgb(46,204,113);fill-rule:nonzero;"/>
                <path d="M79,238.67C62.687,222.377 36.518,220.739 18.3,234.87C33.966,261.468 56.126,283.663 82.7,299.37C96.884,281.186 95.288,254.997 79,238.67Z" style="fill:rgb(46,204,113);fill-rule:nonzero;"/>
                <path d="M87.67,209.48C84.969,212.183 83.45,215.852 83.45,219.673C83.45,227.584 89.959,234.093 97.87,234.093C105.781,234.093 112.29,227.584 112.29,219.673C112.29,215.852 110.771,212.183 108.07,209.48C102.464,203.908 93.276,203.908 87.67,209.48Z" style="fill:rgb(46,204,113);fill-rule:nonzero;"/>
            </g>
        </g>
    </g>
</svg>
